<svg id="visual" viewBox="0 0 960 360" width="960" height="360" xmlns="http://www.w3.org/2000/svg" xmlns:xlink="http://www.w3.org/1999/xlink" version="1.1"><rect x="0" y="0" width="960" height="360" fill="#a266eb"></rect><path d="M0 211L87 155L175 177L262 177L349 209L436 166L524 142L611 172L698 194L785 229L873 174L960 140L960 0L873 0L785 0L698 0L611 0L524 0L436 0L349 0L262 0L175 0L87 0L0 0Z" fill="#6d67a6"></path><path d="M0 170L87 159L175 133L262 140L349 130L436 145L524 202L611 167L698 128L785 184L873 120L960 189L960 0L873 0L785 0L698 0L611 0L524 0L436 0L349 0L262 0L175 0L87 0L0 0Z" fill="#5a5c9e"></path><path d="M0 95L87 110L175 159L262 77L349 138L436 91L524 147L611 100L698 140L785 141L873 138L960 142L960 0L873 0L785 0L698 0L611 0L524 0L436 0L349 0L262 0L175 0L87 0L0 0Z" fill="#465196"></path><path d="M0 61L87 95L175 112L262 50L349 80L436 63L524 88L611 60L698 91L785 107L873 76L960 91L960 0L873 0L785 0L698 0L611 0L524 0L436 0L349 0L262 0L175 0L87 0L0 0Z" fill="#2e478e"></path><path d="M0 35L87 54L175 37L262 47L349 52L436 39L524 60L611 69L698 24L785 73L873 28L960 58L960 0L873 0L785 0L698 0L611 0L524 0L436 0L349 0L262 0L175 0L87 0L0 0Z" fill="#003d87"></path></svg>