<svg id="visual" viewBox="0 0 960 540" width="960" height="540" xmlns="http://www.w3.org/2000/svg" xmlns:xlink="http://www.w3.org/1999/xlink" version="1.1"><path d="M0 174L87 174L87 131L175 131L175 77L262 77L262 185L349 185L349 147L436 147L436 217L524 217L524 125L611 125L611 179L698 179L698 93L785 93L785 158L873 158L873 71L960 71L960 82L960 0L960 0L873 0L873 0L785 0L785 0L698 0L698 0L611 0L611 0L524 0L524 0L436 0L436 0L349 0L349 0L262 0L262 0L175 0L175 0L87 0L87 0L0 0Z" fill="#a266eb"></path><path d="M0 282L87 282L87 255L175 255L175 212L262 212L262 255L349 255L349 282L436 282L436 266L524 266L524 249L611 249L611 330L698 330L698 190L785 190L785 249L873 249L873 206L960 206L960 174L960 80L960 69L873 69L873 156L785 156L785 91L698 91L698 177L611 177L611 123L524 123L524 215L436 215L436 145L349 145L349 183L262 183L262 75L175 75L175 129L87 129L87 172L0 172Z" fill="#d165cc"></path><path d="M0 395L87 395L87 325L175 325L175 314L262 314L262 357L349 357L349 320L436 320L436 357L524 357L524 320L611 320L611 368L698 368L698 282L785 282L785 293L873 293L873 309L960 309L960 271L960 172L960 204L873 204L873 247L785 247L785 188L698 188L698 328L611 328L611 247L524 247L524 264L436 264L436 280L349 280L349 253L262 253L262 210L175 210L175 253L87 253L87 280L0 280Z" fill="#e76fb0"></path><path d="M0 492L87 492L87 487L175 487L175 503L262 503L262 471L349 471L349 476L436 476L436 482L524 482L524 492L611 492L611 465L698 465L698 455L785 455L785 455L873 455L873 492L960 492L960 460L960 269L960 307L873 307L873 291L785 291L785 280L698 280L698 366L611 366L611 318L524 318L524 355L436 355L436 318L349 318L349 355L262 355L262 312L175 312L175 323L87 323L87 393L0 393Z" fill="#ed819d"></path><path d="M0 541L87 541L87 541L175 541L175 541L262 541L262 541L349 541L349 541L436 541L436 541L524 541L524 541L611 541L611 541L698 541L698 541L785 541L785 541L873 541L873 541L960 541L960 541L960 458L960 490L873 490L873 453L785 453L785 453L698 453L698 463L611 463L611 490L524 490L524 480L436 480L436 474L349 474L349 469L262 469L262 501L175 501L175 485L87 485L87 490L0 490Z" fill="#e99696"></path></svg>